<?xml version="1.0" encoding="UTF-8"?>
<svg id="Layer_2" data-name="Layer 2" xmlns="http://www.w3.org/2000/svg" viewBox="0 0 181.72 160.27">
  <defs>
    <style>
      .cls-1 {
        fill: #fff;
      }

      .cls-2 {
        fill: #fce2be;
      }
    </style>
  </defs>
  <g id="Layer_1-2" data-name="Layer 1">
    <g>
      <g>
        <path class="cls-2" d="M42.83,87.64c-9.98,0-14.98-3.39-14.98-10.15v-16.02c0-.56,.08-.93,.25-1.1,.17-.17,.53-.25,1.1-.25h47.11c-2.66-1.73-8.98-5.8-8.98-5.8H29.21c-.57,0-.93-.08-1.1-.25-.17-.17-.25-.54-.25-1.1v-13.91c0-7.95,4.03-11.93,12.1-11.93,1.07,0,1.61-.17,1.61-.51v-1.61c0-.45-.23-.68-.68-.68H2.88c-.4,0-.59,.23-.59,.68v1.61c0,.45,.59,.71,1.78,.76,7.84,.4,11.76,3.89,11.76,10.49v37.68c0,8.07-4.71,12.1-14.13,12.1-1.13,0-1.69,.23-1.69,.68v2.03c0,.45,.23,.68,.68,.68H42.92c.39,0,.59-.22,.59-.68v-2.03c0-.45-.23-.68-.68-.68Z"/>
        <path class="cls-2" d="M177.57,87.64c-10.55-.34-15.82-4.32-15.82-11.93V39.05c0-7.95,4.17-11.93,12.52-11.93,1.07,0,1.61-.17,1.61-.51v-1.61c0-.45-.23-.68-.68-.68h-44.36c-.4,0-.59,.23-.59,.68v1.61c0,.45,.22,.68,.68,.68,4.57,.34,8.66,1.12,12.27,2.33,3.61,1.21,5.61,2.78,6.01,4.7,.17,.9,.27,1.57,.3,1.99,.03,.42,.1,.89,.21,1.4v15.26c0,.56-.08,.93-.25,1.1-.17,.17-.54,.25-1.1,.25h-46.93c-1.79-1.36-3.73-2.77-5.84-4.24-3.12-2.23-6.19-4.45-9.2-6.63-3.02-2.18-5.69-4.47-8.03-6.86-2.34-2.39-4.22-4.99-5.65-7.8-1.43-2.81-2.14-6.12-2.14-9.94s1.92-7.14,5.77-9.94c3.85-2.81,7.93-4.21,12.24-4.21,7.18,0,13.62,2.76,19.34,8.27,2.34,2.34,4.06,4.71,5.15,7.1,.31,.62,.61,1.25,.9,1.87,.29,.62,.53,1.18,.74,1.68,.21,.49,.42,.85,.62,1.05,.21,.21,.71,.31,1.52,.31s1.21-.14,1.21-.43-.1-.95-.31-1.99l-2.03-16.61c0-1.14-.26-1.72-.78-1.72l-4.37,.55c-1.87-.47-5.19-1.38-9.94-2.73-4.76-1.35-9.11-2.03-13.06-2.03-7.64,0-14.42,2.37-20.32,7.1-5.9,4.73-8.85,10.8-8.85,18.21s2.68,14.13,8.03,20.16c3.43,3.9,8.03,7.8,13.8,11.7,5.77,3.9,10.19,6.94,13.26,9.12,10.81,7.8,16.22,16.22,16.22,25.27,0,5.67-2.07,10.27-6.2,13.81-4.13,3.54-9.11,5.3-14.94,5.3-12.69,0-21.76-5.85-27.22-17.55-1.2-4.16-2.52-6.24-3.98-6.24-.57,0-.92,.14-1.05,.43-.13,.29-.2,.83-.2,1.64s.75,7.66,2.26,20.55c.16,1.09,.57,1.64,1.25,1.64l3.82-.78c.16-.05,.53-.08,1.13-.08s1.55,.26,2.85,.78c1.3,.52,3.65,1.37,7.06,2.53,3.41,1.17,7.99,1.76,13.77,1.76,8.99,0,16.89-2.64,23.67-7.92,6.79-5.28,10.18-12.33,10.18-21.18-.47-7.9-3.43-15.03-8.89-21.37-1.26-1.48-2.84-3.08-4.72-4.78h39.86c.56,0,.93,.08,1.1,.25,.17,.17,.25,.54,.25,1.1v15.18c0,4.29-2.76,7.33-8.29,9.14-3.61,1.24-6.83,1.86-9.65,1.86s-4.23,.23-4.23,.68v2.03c0,.45,.23,.68,.68,.68h49.35c.45,0,.68-.22,.68-.68v-2.03c0-.45-.23-.68-.68-.68Z"/>
      </g>
      <g>
        <path class="cls-1" d="M2.49,159.16c-.18,0-.29-.14-.33-.43-.15-1.29-.27-2.28-.35-3-.08-.71-.14-1.24-.17-1.6-.04-.36-.06-.58-.06-.69s0-.17,0-.22c0-.15,.07-.31,.21-.49s.3-.27,.49-.27c.14,0,.28,.08,.44,.25s.31,.36,.45,.57,.27,.44,.37,.66c.1,.22,.17,.38,.2,.47,.36,.75,.74,1.38,1.16,1.9,.42,.51,.89,.92,1.43,1.23,.53,.31,1.13,.53,1.81,.67,.67,.14,1.44,.21,2.3,.21,1.46,0,2.6-.35,3.42-1.05s1.22-1.82,1.22-3.36c0-.89-.19-1.7-.58-2.42-.39-.73-.9-1.4-1.53-2.02-.63-.62-1.35-1.21-2.15-1.77-.81-.56-1.63-1.13-2.48-1.7-.85-.57-1.68-1.17-2.48-1.79-.81-.62-1.53-1.31-2.15-2.06-.63-.75-1.14-1.59-1.53-2.5s-.58-1.95-.58-3.1c0-.7,.13-1.35,.38-1.95,.25-.6,.59-1.15,1.02-1.64,.42-.49,.92-.93,1.49-1.32,.57-.39,1.17-.72,1.82-.98,.64-.27,1.3-.47,1.96-.61s1.31-.21,1.94-.21c.51,0,1.02,.04,1.53,.13,.51,.09,1.02,.19,1.52,.32s1,.26,1.51,.4,1.01,.28,1.5,.4l1.35-.12c.12,0,.2,.05,.24,.15s.06,.2,.07,.28l.6,4.82c0,.07-.09,.12-.27,.14s-.31,.04-.41,.04c-.08,0-.21-.01-.37-.03s-.26-.04-.29-.07c-.04-.04-.09-.13-.15-.26-.06-.13-.13-.27-.2-.43s-.14-.32-.22-.48-.15-.31-.24-.43c-.66-1.01-1.5-1.77-2.52-2.27-1.03-.5-2.15-.75-3.39-.75-.53,0-1.03,.06-1.5,.18s-.87,.32-1.21,.58-.61,.6-.81,1.02c-.2,.41-.3,.9-.3,1.48,0,.83,.2,1.59,.58,2.27,.39,.68,.9,1.31,1.54,1.91,.64,.59,1.36,1.17,2.17,1.73,.81,.56,1.64,1.13,2.48,1.71,.84,.58,1.67,1.2,2.48,1.86s1.54,1.38,2.17,2.17,1.15,1.67,1.54,2.65c.39,.97,.58,2.07,.58,3.28,0,.81-.14,1.56-.42,2.26-.28,.7-.66,1.33-1.14,1.9-.48,.57-1.04,1.07-1.68,1.51-.64,.44-1.33,.8-2.06,1.1-.73,.29-1.48,.52-2.26,.67-.77,.15-1.53,.23-2.27,.23-.93,0-1.74-.07-2.43-.21s-1.29-.29-1.79-.46-.92-.32-1.26-.46-.63-.21-.86-.21c-.08,0-.14,0-.18,.02l-1.31,.21Z"/>
        <path class="cls-1" d="M27.46,159.66s-.03-.08-.03-.1v-1.11s0-.06,.03-.1,.07-.06,.13-.06c.42,0,.85-.03,1.28-.09s.82-.2,1.18-.4c.36-.21,.65-.5,.87-.88s.34-.9,.34-1.56v-20.56c0-.46-.08-.85-.23-1.17s-.36-.57-.64-.77-.6-.35-.98-.44c-.38-.1-.81-.16-1.27-.18-.11,0-.16-.05-.16-.16v-1.11c0-.11,.05-.16,.14-.16h12.15c.07,0,.11,.02,.13,.06s.03,.08,.03,.1v1.11c0,.08-.05,.12-.16,.12-.41,0-.81,.04-1.19,.11s-.72,.21-1,.42-.52,.5-.7,.87c-.18,.38-.27,.87-.27,1.49v8.45c0,.14,.02,.23,.06,.27s.13,.06,.27,.06h14.32c.14,0,.23-.02,.27-.06s.06-.13,.06-.27v-8.78c0-.48-.15-.88-.45-1.19-.3-.32-.68-.56-1.14-.75s-.95-.32-1.49-.41-1.03-.15-1.48-.17c-.11,0-.16-.05-.16-.16v-1.11c0-.11,.05-.16,.14-.16h13.68c.07,0,.11,.02,.13,.06,.02,.04,.03,.08,.03,.1v1.11c0,.08-.05,.12-.16,.12-.41,0-.81,.04-1.2,.11s-.74,.21-1.05,.42c-.31,.21-.55,.5-.74,.87s-.28,.87-.28,1.49v20.31c0,.36,.05,.67,.15,.95s.26,.56,.48,.83c.22,.3,.58,.55,1.08,.76,.5,.21,1.21,.32,2.12,.35,.11,0,.16,.05,.16,.16v1.11c0,.11-.05,.16-.16,.16h-14.89c-.07,0-.11-.02-.13-.06s-.03-.08-.03-.1v-1.11s.01-.06,.03-.1,.06-.06,.13-.06c.41,0,.91-.03,1.5-.08s1.16-.17,1.71-.36c.55-.19,1.03-.45,1.42-.8s.58-.82,.58-1.43v-8.86c0-.14-.02-.23-.06-.27s-.13-.06-.27-.06h-14.32c-.14,0-.23,.02-.27,.06s-.06,.13-.06,.27v9.07c0,.47,.1,.86,.31,1.17s.47,.57,.81,.76,.72,.33,1.16,.41,.89,.12,1.35,.12c.08,0,.13,.02,.14,.06s.02,.08,.02,.1v1.11s0,.06-.02,.1-.05,.06-.12,.06h-13.17c-.07,0-.11-.02-.13-.06Z"/>
        <path class="cls-1" d="M85.88,160.25c-.48,0-1.08-.04-1.79-.12-.72-.08-1.5-.23-2.36-.45s-1.75-.51-2.68-.86c-.93-.36-1.84-.81-2.74-1.36-.9-.55-1.75-1.21-2.55-1.97-.81-.76-1.52-1.64-2.12-2.65-.61-1.01-1.09-2.15-1.46-3.44-.36-1.29-.54-2.73-.54-4.33,0-1.42,.2-2.78,.58-4.08,.39-1.3,.95-2.51,1.67-3.63,.72-1.12,1.6-2.14,2.64-3.06,1.03-.92,2.18-1.7,3.46-2.34,1.27-.64,2.65-1.14,4.14-1.5,1.49-.36,3.06-.53,4.7-.53,1.42,0,2.8,.17,4.13,.52s2.58,.84,3.74,1.48c1.16,.64,2.23,1.4,3.19,2.29,.96,.89,1.79,1.88,2.49,2.97,.7,1.09,1.24,2.27,1.62,3.54s.57,2.58,.57,3.95c0,1.29-.18,2.56-.55,3.83s-.9,2.48-1.6,3.63c-.7,1.16-1.54,2.23-2.53,3.21-.99,.98-2.1,1.84-3.33,2.58-1.23,.73-2.58,1.3-4.04,1.71-1.46,.41-3.01,.62-4.64,.62Zm-10.22-15.94c0,1.11,.11,2.22,.34,3.32s.56,2.17,1,3.2c.44,1.03,.98,1.99,1.62,2.88,.64,.9,1.37,1.68,2.2,2.34,.82,.66,1.73,1.18,2.74,1.56,1,.38,2.1,.56,3.27,.56,1.65,0,3.09-.35,4.31-1.06,1.22-.7,2.23-1.64,3.03-2.8,.8-1.16,1.4-2.5,1.79-4.01,.39-1.51,.58-3.07,.58-4.69,0-1.18-.11-2.33-.34-3.46-.23-1.13-.55-2.2-.98-3.22-.43-1.02-.96-1.96-1.6-2.81s-1.37-1.6-2.2-2.23-1.74-1.12-2.75-1.47c-1-.35-2.1-.52-3.27-.52-1.05,0-2.02,.16-2.91,.49s-1.69,.78-2.41,1.34c-.72,.57-1.35,1.25-1.9,2.03s-1,1.64-1.37,2.55c-.37,.92-.65,1.88-.84,2.9-.19,1.02-.29,2.04-.29,3.07Z"/>
        <path class="cls-1" d="M110.3,159.66s-.03-.08-.03-.1v-1.11s0-.06,.03-.1,.07-.06,.13-.06c.42,0,.85-.03,1.28-.09s.82-.2,1.18-.4c.36-.21,.65-.5,.87-.88s.34-.9,.34-1.56v-20.56c0-.46-.08-.85-.23-1.17s-.36-.57-.64-.77-.6-.35-.98-.44c-.38-.1-.81-.16-1.27-.18-.11,0-.16-.05-.16-.16v-1.11c0-.11,.05-.16,.14-.16h12.15c.07,0,.11,.02,.13,.06s.03,.08,.03,.1v1.11c0,.08-.05,.12-.16,.12-.41,0-.81,.04-1.19,.11s-.72,.21-1,.42-.52,.5-.7,.87c-.18,.38-.27,.87-.27,1.49v8.45c0,.14,.02,.23,.06,.27s.13,.06,.27,.06h14.32c.14,0,.23-.02,.27-.06s.06-.13,.06-.27v-8.78c0-.48-.15-.88-.45-1.19-.3-.32-.68-.56-1.14-.75s-.95-.32-1.49-.41-1.03-.15-1.48-.17c-.11,0-.16-.05-.16-.16v-1.11c0-.11,.05-.16,.14-.16h13.68c.07,0,.11,.02,.13,.06,.02,.04,.03,.08,.03,.1v1.11c0,.08-.05,.12-.16,.12-.41,0-.81,.04-1.2,.11s-.74,.21-1.05,.42c-.31,.21-.55,.5-.74,.87s-.28,.87-.28,1.49v20.31c0,.36,.05,.67,.15,.95s.26,.56,.48,.83c.22,.3,.58,.55,1.08,.76,.5,.21,1.21,.32,2.12,.35,.11,0,.16,.05,.16,.16v1.11c0,.11-.05,.16-.16,.16h-14.89c-.07,0-.11-.02-.13-.06s-.03-.08-.03-.1v-1.11s.01-.06,.03-.1,.06-.06,.13-.06c.41,0,.91-.03,1.5-.08s1.16-.17,1.71-.36c.55-.19,1.03-.45,1.42-.8s.58-.82,.58-1.43v-8.86c0-.14-.02-.23-.06-.27s-.13-.06-.27-.06h-14.32c-.14,0-.23,.02-.27,.06s-.06,.13-.06,.27v9.07c0,.47,.1,.86,.31,1.17s.47,.57,.81,.76,.72,.33,1.16,.41,.89,.12,1.35,.12c.08,0,.13,.02,.14,.06s.02,.08,.02,.1v1.11s0,.06-.02,.1-.05,.06-.12,.06h-13.17c-.07,0-.11-.02-.13-.06Z"/>
        <path class="cls-1" d="M150.31,158.75c0-.11,.05-.16,.16-.16,.26-.01,.56-.05,.91-.11s.7-.19,1.07-.39c.36-.2,.71-.49,1.06-.88,.34-.39,.63-.93,.86-1.61l8.25-23.92s0,0,.01-.02c0-.03,0-.05,0-.08,0-.1-.04-.22-.11-.36-.08-.14-.11-.25-.11-.32s.03-.1,.08-.1h5.95s.07,.03,.11,.04c.05,.01,.08,.06,.11,.12l8.68,24.35c.14,.38,.27,.71,.39,.98,.12,.27,.27,.52,.44,.73,.17,.21,.39,.4,.65,.57,.26,.17,.6,.35,1.01,.52,.19,.1,.45,.2,.78,.31,.33,.11,.64,.16,.94,.16,.07,0,.11,.02,.13,.06s.03,.08,.03,.12v.78s-.01,.06-.03,.1-.07,.06-.13,.06h-14.4c-.07,0-.11-.02-.13-.06s-.03-.08-.03-.1v-.8s0-.06,.03-.1,.07-.06,.13-.06c.05,0,.11,0,.16,0s.1-.01,.12-.01c.15-.01,.37-.03,.65-.04s.58-.04,.91-.07c.33-.03,.66-.09,.99-.16,.34-.08,.64-.18,.91-.33s.5-.33,.68-.56c.18-.23,.27-.52,.27-.86,0-.08-.01-.18-.04-.29l-2.69-7.41s-.04-.09-.07-.18c-.03-.09-.09-.19-.16-.3s-.17-.2-.29-.28-.26-.12-.42-.12h-7.41c-.18,0-.33,.04-.45,.12s-.23,.17-.31,.27-.15,.19-.19,.29c-.05,.1-.07,.15-.07,.16-.44,1.29-.81,2.37-1.11,3.25-.3,.88-.55,1.61-.75,2.19-.2,.57-.35,1.02-.46,1.33s-.19,.54-.24,.69-.08,.25-.09,.32c0,.04,0,.08,.02,.13s.03,.09,.04,.13c.11,.34,.31,.62,.61,.85,.29,.23,.63,.4,1.02,.53,.38,.13,.78,.22,1.18,.28,.4,.05,.76,.08,1.08,.08h.53c.07,0,.11,.02,.13,.06s.03,.08,.03,.1v.8s-.01,.06-.03,.1-.06,.06-.13,.06h-11.1c-.11,0-.16-.05-.16-.16v-.8Zm10.75-13.75c-.03,.07-.05,.14-.06,.21s-.02,.14-.02,.21c0,.08,.02,.15,.06,.2,.04,.05,.12,.07,.25,.07h6.15c.15,0,.25-.03,.3-.09,.05-.06,.07-.13,.07-.22,0-.07,0-.13-.02-.18s-.03-.12-.06-.18l-2.73-7.49c-.07-.19-.17-.33-.31-.42-.14-.09-.26-.13-.37-.13s-.23,.05-.37,.15c-.14,.1-.24,.24-.31,.42l-2.59,7.47Z"/>
      </g>
    </g>
  </g>
</svg>